<?xml version="1.0" encoding="UTF-8" standalone="no"?><!DOCTYPE svg PUBLIC "-//W3C//DTD SVG 1.1//EN" "http://www.w3.org/Graphics/SVG/1.1/DTD/svg11.dtd"><!-- Generated by graphviz version 2.40.1 (20161225.0304)
 --><!-- Title: Tree Pages: 1 --><svg xmlns="http://www.w3.org/2000/svg" xmlns:xlink="http://www.w3.org/1999/xlink" width="1218pt" height="400pt" viewBox="0.00 0.00 1217.54 400.00">
<g id="graph0" class="graph" transform="scale(1 1) rotate(0) translate(4 396)">
<title>Tree</title>
<polygon fill="#ffffff" stroke="transparent" points="-4,4 -4,-396 1213.5356,-396 1213.5356,4 -4,4"/>
<!-- 0 -->
<g id="node1" class="node">
<title>0</title>
<polygon fill="none" stroke="#000000" points="698.304,-392.1003 530.2316,-392.1003 530.2316,-316.6997 698.304,-316.6997 698.304,-392.1003"/>
<text text-anchor="middle" x="614.2678" y="-375.4" font-family="Times,serif" font-size="14.00" fill="#000000">r &lt;= 0.56</text>
<text text-anchor="middle" x="614.2678" y="-358.6" font-family="Times,serif" font-size="14.00" fill="#000000">gini = 0.666</text>
<text text-anchor="middle" x="614.2678" y="-341.8" font-family="Times,serif" font-size="14.00" fill="#000000">samples = 7379</text>
<text text-anchor="middle" x="614.2678" y="-325" font-family="Times,serif" font-size="14.00" fill="#000000">value = [3878, 4054, 3808]</text>
</g>
<!-- 1 -->
<g id="node2" class="node">
<title>1</title>
<polygon fill="none" stroke="#000000" points="550.8041,-280.9003 389.7315,-280.9003 389.7315,-205.4997 550.8041,-205.4997 550.8041,-280.9003"/>
<text text-anchor="middle" x="470.2678" y="-264.2" font-family="Times,serif" font-size="14.00" fill="#000000">u &lt;= 0.075</text>
<text text-anchor="middle" x="470.2678" y="-247.4" font-family="Times,serif" font-size="14.00" fill="#000000">gini = 0.574</text>
<text text-anchor="middle" x="470.2678" y="-230.6" font-family="Times,serif" font-size="14.00" fill="#000000">samples = 5122</text>
<text text-anchor="middle" x="470.2678" y="-213.8" font-family="Times,serif" font-size="14.00" fill="#000000">value = [3493, 3990, 720]</text>
</g>
<!-- 0&#45;&gt;1 -->
<g id="edge1" class="edge">
<title>0-&gt;1</title>
<path fill="none" stroke="#000000" d="M565.516,-316.7528C553.2006,-307.2425 539.8686,-296.9473 527.1897,-287.1564"/>
<polygon fill="#000000" stroke="#000000" points="529.0234,-284.1503 518.9694,-280.8085 524.745,-289.6907 529.0234,-284.1503"/>
<text text-anchor="middle" x="522.1564" y="-301.4045" font-family="Times,serif" font-size="14.00" fill="#000000">True</text>
</g>
<!-- 8 -->
<g id="node9" class="node">
<title>8</title>
<polygon fill="none" stroke="#000000" points="843.8041,-280.9003 696.7315,-280.9003 696.7315,-205.4997 843.8041,-205.4997 843.8041,-280.9003"/>
<text text-anchor="middle" x="770.2678" y="-264.2" font-family="Times,serif" font-size="14.00" fill="#000000">x_coord &lt;= 0.069</text>
<text text-anchor="middle" x="770.2678" y="-247.4" font-family="Times,serif" font-size="14.00" fill="#000000">gini = 0.226</text>
<text text-anchor="middle" x="770.2678" y="-230.6" font-family="Times,serif" font-size="14.00" fill="#000000">samples = 2257</text>
<text text-anchor="middle" x="770.2678" y="-213.8" font-family="Times,serif" font-size="14.00" fill="#000000">value = [385, 64, 3088]</text>
</g>
<!-- 0&#45;&gt;8 -->
<g id="edge8" class="edge">
<title>0-&gt;8</title>
<path fill="none" stroke="#000000" d="M667.0823,-316.7528C680.551,-307.1519 695.1422,-296.7511 708.9947,-286.8768"/>
<polygon fill="#000000" stroke="#000000" points="711.3963,-289.463 717.5077,-280.8085 707.3331,-283.7629 711.3963,-289.463"/>
<text text-anchor="middle" x="713.3738" y="-301.2643" font-family="Times,serif" font-size="14.00" fill="#000000">False</text>
</g>
<!-- 2 -->
<g id="node3" class="node">
<title>2</title>
<polygon fill="none" stroke="#000000" points="312.8041,-169.7003 151.7315,-169.7003 151.7315,-94.2997 312.8041,-94.2997 312.8041,-169.7003"/>
<text text-anchor="middle" x="232.2678" y="-153" font-family="Times,serif" font-size="14.00" fill="#000000">x_coord &lt;= 0.265</text>
<text text-anchor="middle" x="232.2678" y="-136.2" font-family="Times,serif" font-size="14.00" fill="#000000">gini = 0.59</text>
<text text-anchor="middle" x="232.2678" y="-119.4" font-family="Times,serif" font-size="14.00" fill="#000000">samples = 2676</text>
<text text-anchor="middle" x="232.2678" y="-102.6" font-family="Times,serif" font-size="14.00" fill="#000000">value = [2190, 1530, 538]</text>
</g>
<!-- 1&#45;&gt;2 -->
<g id="edge2" class="edge">
<title>1-&gt;2</title>
<path fill="none" stroke="#000000" d="M389.6919,-205.5528C367.8833,-195.3632 344.146,-184.2725 321.8741,-173.8665"/>
<polygon fill="#000000" stroke="#000000" points="323.3022,-170.6706 312.7608,-169.6085 320.3391,-177.0125 323.3022,-170.6706"/>
</g>
<!-- 5 -->
<g id="node6" class="node">
<title>5</title>
<polygon fill="none" stroke="#000000" points="550.8041,-169.7003 389.7315,-169.7003 389.7315,-94.2997 550.8041,-94.2997 550.8041,-169.7003"/>
<text text-anchor="middle" x="470.2678" y="-153" font-family="Times,serif" font-size="14.00" fill="#000000">z_coord &lt;= -0.53</text>
<text text-anchor="middle" x="470.2678" y="-136.2" font-family="Times,serif" font-size="14.00" fill="#000000">gini = 0.5</text>
<text text-anchor="middle" x="470.2678" y="-119.4" font-family="Times,serif" font-size="14.00" fill="#000000">samples = 2446</text>
<text text-anchor="middle" x="470.2678" y="-102.6" font-family="Times,serif" font-size="14.00" fill="#000000">value = [1303, 2460, 182]</text>
</g>
<!-- 1&#45;&gt;5 -->
<g id="edge5" class="edge">
<title>1-&gt;5</title>
<path fill="none" stroke="#000000" d="M470.2678,-205.5528C470.2678,-197.22 470.2678,-188.2845 470.2678,-179.6137"/>
<polygon fill="#000000" stroke="#000000" points="473.7679,-179.6084 470.2678,-169.6085 466.7679,-179.6085 473.7679,-179.6084"/>
</g>
<!-- 3 -->
<g id="node4" class="node">
<title>3</title>
<polygon fill="none" stroke="#000000" points="140.3042,-58.6014 .2314,-58.6014 .2314,.2014 140.3042,.2014 140.3042,-58.6014"/>
<text text-anchor="middle" x="70.2678" y="-41.8" font-family="Times,serif" font-size="14.00" fill="#000000">gini = 0.375</text>
<text text-anchor="middle" x="70.2678" y="-25" font-family="Times,serif" font-size="14.00" fill="#000000">samples = 1146</text>
<text text-anchor="middle" x="70.2678" y="-8.2" font-family="Times,serif" font-size="14.00" fill="#000000">value = [3, 1376, 454]</text>
</g>
<!-- 2&#45;&gt;3 -->
<g id="edge3" class="edge">
<title>2-&gt;3</title>
<path fill="none" stroke="#000000" d="M172.8649,-94.3048C157.3145,-84.4371 140.6186,-73.8423 125.3067,-64.1259"/>
<polygon fill="#000000" stroke="#000000" points="126.7891,-60.9214 116.4703,-58.5186 123.0385,-66.8319 126.7891,-60.9214"/>
</g>
<!-- 4 -->
<g id="node5" class="node">
<title>4</title>
<polygon fill="none" stroke="#000000" points="305.8041,-58.6014 158.7315,-58.6014 158.7315,.2014 305.8041,.2014 305.8041,-58.6014"/>
<text text-anchor="middle" x="232.2678" y="-41.8" font-family="Times,serif" font-size="14.00" fill="#000000">gini = 0.181</text>
<text text-anchor="middle" x="232.2678" y="-25" font-family="Times,serif" font-size="14.00" fill="#000000">samples = 1530</text>
<text text-anchor="middle" x="232.2678" y="-8.2" font-family="Times,serif" font-size="14.00" fill="#000000">value = [2187, 154, 84]</text>
</g>
<!-- 2&#45;&gt;4 -->
<g id="edge4" class="edge">
<title>2-&gt;4</title>
<path fill="none" stroke="#000000" d="M232.2678,-94.3048C232.2678,-85.9126 232.2678,-76.9946 232.2678,-68.5382"/>
<polygon fill="#000000" stroke="#000000" points="235.7679,-68.5186 232.2678,-58.5186 228.7679,-68.5187 235.7679,-68.5186"/>
</g>
<!-- 6 -->
<g id="node7" class="node">
<title>6</title>
<polygon fill="none" stroke="#000000" points="471.8041,-58.6014 324.7315,-58.6014 324.7315,.2014 471.8041,.2014 471.8041,-58.6014"/>
<text text-anchor="middle" x="398.2678" y="-41.8" font-family="Times,serif" font-size="14.00" fill="#000000">gini = 0.276</text>
<text text-anchor="middle" x="398.2678" y="-25" font-family="Times,serif" font-size="14.00" fill="#000000">samples = 972</text>
<text text-anchor="middle" x="398.2678" y="-8.2" font-family="Times,serif" font-size="14.00" fill="#000000">value = [1300, 234, 18]</text>
</g>
<!-- 5&#45;&gt;6 -->
<g id="edge6" class="edge">
<title>5-&gt;6</title>
<path fill="none" stroke="#000000" d="M443.8665,-94.3048C437.6012,-85.3593 430.9174,-75.8163 424.6527,-66.8718"/>
<polygon fill="#000000" stroke="#000000" points="427.4058,-64.7016 418.8022,-58.5186 421.6723,-68.7174 427.4058,-64.7016"/>
</g>
<!-- 7 -->
<g id="node8" class="node">
<title>7</title>
<polygon fill="none" stroke="#000000" points="630.3042,-58.6014 490.2314,-58.6014 490.2314,.2014 630.3042,.2014 630.3042,-58.6014"/>
<text text-anchor="middle" x="560.2678" y="-41.8" font-family="Times,serif" font-size="14.00" fill="#000000">gini = 0.13</text>
<text text-anchor="middle" x="560.2678" y="-25" font-family="Times,serif" font-size="14.00" fill="#000000">samples = 1474</text>
<text text-anchor="middle" x="560.2678" y="-8.2" font-family="Times,serif" font-size="14.00" fill="#000000">value = [3, 2226, 164]</text>
</g>
<!-- 5&#45;&gt;7 -->
<g id="edge7" class="edge">
<title>5-&gt;7</title>
<path fill="none" stroke="#000000" d="M503.2694,-94.3048C511.3433,-85.0826 519.9731,-75.2255 528.0116,-66.0437"/>
<polygon fill="#000000" stroke="#000000" points="530.646,-68.3481 534.5997,-58.5186 525.3792,-63.7371 530.646,-68.3481"/>
</g>
<!-- 9 -->
<g id="node10" class="node">
<title>9</title>
<polygon fill="none" stroke="#000000" points="836.8042,-169.7003 703.7314,-169.7003 703.7314,-94.2997 836.8042,-94.2997 836.8042,-169.7003"/>
<text text-anchor="middle" x="770.2678" y="-153" font-family="Times,serif" font-size="14.00" fill="#000000">z &lt;= 0.258</text>
<text text-anchor="middle" x="770.2678" y="-136.2" font-family="Times,serif" font-size="14.00" fill="#000000">gini = 0.013</text>
<text text-anchor="middle" x="770.2678" y="-119.4" font-family="Times,serif" font-size="14.00" fill="#000000">samples = 1513</text>
<text text-anchor="middle" x="770.2678" y="-102.6" font-family="Times,serif" font-size="14.00" fill="#000000">value = [0, 16, 2358]</text>
</g>
<!-- 8&#45;&gt;9 -->
<g id="edge9" class="edge">
<title>8-&gt;9</title>
<path fill="none" stroke="#000000" d="M770.2678,-205.5528C770.2678,-197.22 770.2678,-188.2845 770.2678,-179.6137"/>
<polygon fill="#000000" stroke="#000000" points="773.7679,-179.6084 770.2678,-169.6085 766.7679,-179.6085 773.7679,-179.6084"/>
</g>
<!-- 12 -->
<g id="node13" class="node">
<title>12</title>
<polygon fill="none" stroke="#000000" points="1064.3042,-169.7003 924.2314,-169.7003 924.2314,-94.2997 1064.3042,-94.2997 1064.3042,-169.7003"/>
<text text-anchor="middle" x="994.2678" y="-153" font-family="Times,serif" font-size="14.00" fill="#000000">y_coord &lt;= 0.034</text>
<text text-anchor="middle" x="994.2678" y="-136.2" font-family="Times,serif" font-size="14.00" fill="#000000">gini = 0.495</text>
<text text-anchor="middle" x="994.2678" y="-119.4" font-family="Times,serif" font-size="14.00" fill="#000000">samples = 744</text>
<text text-anchor="middle" x="994.2678" y="-102.6" font-family="Times,serif" font-size="14.00" fill="#000000">value = [385, 48, 730]</text>
</g>
<!-- 8&#45;&gt;12 -->
<g id="edge12" class="edge">
<title>8-&gt;12</title>
<path fill="none" stroke="#000000" d="M843.924,-206.6349C866.6634,-195.3464 891.801,-182.8674 914.9077,-171.3966"/>
<polygon fill="#000000" stroke="#000000" points="916.5911,-174.4686 923.9918,-166.887 913.4785,-168.1986 916.5911,-174.4686"/>
</g>
<!-- 10 -->
<g id="node11" class="node">
<title>10</title>
<polygon fill="none" stroke="#000000" points="753.8044,-58.6014 648.7312,-58.6014 648.7312,.2014 753.8044,.2014 753.8044,-58.6014"/>
<text text-anchor="middle" x="701.2678" y="-41.8" font-family="Times,serif" font-size="14.00" fill="#000000">gini = 0.375</text>
<text text-anchor="middle" x="701.2678" y="-25" font-family="Times,serif" font-size="14.00" fill="#000000">samples = 2</text>
<text text-anchor="middle" x="701.2678" y="-8.2" font-family="Times,serif" font-size="14.00" fill="#000000">value = [0, 3, 1]</text>
</g>
<!-- 9&#45;&gt;10 -->
<g id="edge10" class="edge">
<title>9-&gt;10</title>
<path fill="none" stroke="#000000" d="M744.9665,-94.3048C738.9623,-85.3593 732.557,-75.8163 726.5534,-66.8718"/>
<polygon fill="#000000" stroke="#000000" points="729.4258,-64.8711 720.9466,-58.5186 723.6137,-68.7723 729.4258,-64.8711"/>
</g>
<!-- 11 -->
<g id="node12" class="node">
<title>11</title>
<polygon fill="none" stroke="#000000" points="905.8042,-58.6014 772.7314,-58.6014 772.7314,.2014 905.8042,.2014 905.8042,-58.6014"/>
<text text-anchor="middle" x="839.2678" y="-41.8" font-family="Times,serif" font-size="14.00" fill="#000000">gini = 0.011</text>
<text text-anchor="middle" x="839.2678" y="-25" font-family="Times,serif" font-size="14.00" fill="#000000">samples = 1511</text>
<text text-anchor="middle" x="839.2678" y="-8.2" font-family="Times,serif" font-size="14.00" fill="#000000">value = [0, 13, 2357]</text>
</g>
<!-- 9&#45;&gt;11 -->
<g id="edge11" class="edge">
<title>9-&gt;11</title>
<path fill="none" stroke="#000000" d="M795.5691,-94.3048C801.5733,-85.3593 807.9786,-75.8163 813.9822,-66.8718"/>
<polygon fill="#000000" stroke="#000000" points="816.9219,-68.7723 819.589,-58.5186 811.1098,-64.8711 816.9219,-68.7723"/>
</g>
<!-- 13 -->
<g id="node14" class="node">
<title>13</title>
<polygon fill="none" stroke="#000000" points="1064.3042,-58.6014 924.2314,-58.6014 924.2314,.2014 1064.3042,.2014 1064.3042,-58.6014"/>
<text text-anchor="middle" x="994.2678" y="-41.8" font-family="Times,serif" font-size="14.00" fill="#000000">gini = 0.513</text>
<text text-anchor="middle" x="994.2678" y="-25" font-family="Times,serif" font-size="14.00" fill="#000000">samples = 433</text>
<text text-anchor="middle" x="994.2678" y="-8.2" font-family="Times,serif" font-size="14.00" fill="#000000">value = [385, 23, 253]</text>
</g>
<!-- 12&#45;&gt;13 -->
<g id="edge13" class="edge">
<title>12-&gt;13</title>
<path fill="none" stroke="#000000" d="M994.2678,-94.3048C994.2678,-85.9126 994.2678,-76.9946 994.2678,-68.5382"/>
<polygon fill="#000000" stroke="#000000" points="997.7679,-68.5186 994.2678,-58.5186 990.7679,-68.5187 997.7679,-68.5186"/>
</g>
<!-- 14 -->
<g id="node15" class="node">
<title>14</title>
<polygon fill="none" stroke="#000000" points="1209.3042,-58.6014 1083.2314,-58.6014 1083.2314,.2014 1209.3042,.2014 1209.3042,-58.6014"/>
<text text-anchor="middle" x="1146.2678" y="-41.8" font-family="Times,serif" font-size="14.00" fill="#000000">gini = 0.095</text>
<text text-anchor="middle" x="1146.2678" y="-25" font-family="Times,serif" font-size="14.00" fill="#000000">samples = 311</text>
<text text-anchor="middle" x="1146.2678" y="-8.2" font-family="Times,serif" font-size="14.00" fill="#000000">value = [0, 25, 477]</text>
</g>
<!-- 12&#45;&gt;14 -->
<g id="edge14" class="edge">
<title>12-&gt;14</title>
<path fill="none" stroke="#000000" d="M1050.0039,-94.3048C1064.5943,-84.4371 1080.2597,-73.8423 1094.6264,-64.1259"/>
<polygon fill="#000000" stroke="#000000" points="1096.5946,-67.0201 1102.9173,-58.5186 1092.6731,-61.2217 1096.5946,-67.0201"/>
</g>
</g>
</svg>