<?xml version="1.0" encoding="UTF-8" standalone="no"?><!DOCTYPE svg PUBLIC "-//W3C//DTD SVG 1.1//EN" "http://www.w3.org/Graphics/SVG/1.1/DTD/svg11.dtd"><!-- Generated by graphviz version 2.40.1 (20161225.0304)
 --><!-- Title: Tree Pages: 1 --><svg xmlns="http://www.w3.org/2000/svg" xmlns:xlink="http://www.w3.org/1999/xlink" width="1183pt" height="400pt" viewBox="0.00 0.00 1182.54 400.00">
<g id="graph0" class="graph" transform="scale(1 1) rotate(0) translate(4 396)">
<title>Tree</title>
<polygon fill="#ffffff" stroke="transparent" points="-4,4 -4,-396 1178.5356,-396 1178.5356,4 -4,4"/>
<!-- 0 -->
<g id="node1" class="node">
<title>0</title>
<polygon fill="none" stroke="#000000" points="673.804,-392.1003 505.7316,-392.1003 505.7316,-316.6997 673.804,-316.6997 673.804,-392.1003"/>
<text text-anchor="middle" x="589.7678" y="-375.4" font-family="Times,serif" font-size="14.00" fill="#000000">r &lt;= 0.558</text>
<text text-anchor="middle" x="589.7678" y="-358.6" font-family="Times,serif" font-size="14.00" fill="#000000">gini = 0.666</text>
<text text-anchor="middle" x="589.7678" y="-341.8" font-family="Times,serif" font-size="14.00" fill="#000000">samples = 7425</text>
<text text-anchor="middle" x="589.7678" y="-325" font-family="Times,serif" font-size="14.00" fill="#000000">value = [3990, 3992, 3758]</text>
</g>
<!-- 1 -->
<g id="node2" class="node">
<title>1</title>
<polygon fill="none" stroke="#000000" points="529.3041,-280.9003 368.2315,-280.9003 368.2315,-205.4997 529.3041,-205.4997 529.3041,-280.9003"/>
<text text-anchor="middle" x="448.7678" y="-264.2" font-family="Times,serif" font-size="14.00" fill="#000000">z_coord &lt;= -0.53</text>
<text text-anchor="middle" x="448.7678" y="-247.4" font-family="Times,serif" font-size="14.00" fill="#000000">gini = 0.571</text>
<text text-anchor="middle" x="448.7678" y="-230.6" font-family="Times,serif" font-size="14.00" fill="#000000">samples = 5133</text>
<text text-anchor="middle" x="448.7678" y="-213.8" font-family="Times,serif" font-size="14.00" fill="#000000">value = [3557, 3920, 673]</text>
</g>
<!-- 0&#45;&gt;1 -->
<g id="edge1" class="edge">
<title>0-&gt;1</title>
<path fill="none" stroke="#000000" d="M542.0316,-316.7528C529.9728,-307.2425 516.9186,-296.9473 504.5038,-287.1564"/>
<polygon fill="#000000" stroke="#000000" points="506.4742,-284.2528 496.4548,-280.8085 502.1394,-289.7492 506.4742,-284.2528"/>
<text text-anchor="middle" x="499.3884" y="-301.4358" font-family="Times,serif" font-size="14.00" fill="#000000">True</text>
</g>
<!-- 8 -->
<g id="node9" class="node">
<title>8</title>
<polygon fill="none" stroke="#000000" points="819.3041,-280.9003 672.2315,-280.9003 672.2315,-205.4997 819.3041,-205.4997 819.3041,-280.9003"/>
<text text-anchor="middle" x="745.7678" y="-264.2" font-family="Times,serif" font-size="14.00" fill="#000000">x_coord &lt;= 0.092</text>
<text text-anchor="middle" x="745.7678" y="-247.4" font-family="Times,serif" font-size="14.00" fill="#000000">gini = 0.247</text>
<text text-anchor="middle" x="745.7678" y="-230.6" font-family="Times,serif" font-size="14.00" fill="#000000">samples = 2292</text>
<text text-anchor="middle" x="745.7678" y="-213.8" font-family="Times,serif" font-size="14.00" fill="#000000">value = [433, 72, 3085]</text>
</g>
<!-- 0&#45;&gt;8 -->
<g id="edge8" class="edge">
<title>0-&gt;8</title>
<path fill="none" stroke="#000000" d="M642.5823,-316.7528C656.051,-307.1519 670.6422,-296.7511 684.4947,-286.8768"/>
<polygon fill="#000000" stroke="#000000" points="686.8963,-289.463 693.0077,-280.8085 682.8331,-283.7629 686.8963,-289.463"/>
<text text-anchor="middle" x="688.8738" y="-301.2643" font-family="Times,serif" font-size="14.00" fill="#000000">False</text>
</g>
<!-- 2 -->
<g id="node3" class="node">
<title>2</title>
<polygon fill="none" stroke="#000000" points="302.3041,-169.7003 155.2315,-169.7003 155.2315,-94.2997 302.3041,-94.2997 302.3041,-169.7003"/>
<text text-anchor="middle" x="228.7678" y="-153" font-family="Times,serif" font-size="14.00" fill="#000000">x_coord &lt;= 0.281</text>
<text text-anchor="middle" x="228.7678" y="-136.2" font-family="Times,serif" font-size="14.00" fill="#000000">gini = 0.221</text>
<text text-anchor="middle" x="228.7678" y="-119.4" font-family="Times,serif" font-size="14.00" fill="#000000">samples = 2522</text>
<text text-anchor="middle" x="228.7678" y="-102.6" font-family="Times,serif" font-size="14.00" fill="#000000">value = [3539, 442, 61]</text>
</g>
<!-- 1&#45;&gt;2 -->
<g id="edge2" class="edge">
<title>1-&gt;2</title>
<path fill="none" stroke="#000000" d="M374.2858,-205.5528C354.0887,-195.344 332.102,-184.2307 311.4808,-173.8077"/>
<polygon fill="#000000" stroke="#000000" points="312.9297,-170.6184 302.4261,-169.2309 309.772,-176.8657 312.9297,-170.6184"/>
</g>
<!-- 5 -->
<g id="node6" class="node">
<title>5</title>
<polygon fill="none" stroke="#000000" points="522.3041,-169.7003 375.2315,-169.7003 375.2315,-94.2997 522.3041,-94.2997 522.3041,-169.7003"/>
<text text-anchor="middle" x="448.7678" y="-153" font-family="Times,serif" font-size="14.00" fill="#000000">y_coord &lt;= 0.49</text>
<text text-anchor="middle" x="448.7678" y="-136.2" font-family="Times,serif" font-size="14.00" fill="#000000">gini = 0.261</text>
<text text-anchor="middle" x="448.7678" y="-119.4" font-family="Times,serif" font-size="14.00" fill="#000000">samples = 2611</text>
<text text-anchor="middle" x="448.7678" y="-102.6" font-family="Times,serif" font-size="14.00" fill="#000000">value = [18, 3478, 612]</text>
</g>
<!-- 1&#45;&gt;5 -->
<g id="edge5" class="edge">
<title>1-&gt;5</title>
<path fill="none" stroke="#000000" d="M448.7678,-205.5528C448.7678,-197.22 448.7678,-188.2845 448.7678,-179.6137"/>
<polygon fill="#000000" stroke="#000000" points="452.2679,-179.6084 448.7678,-169.6085 445.2679,-179.6085 452.2679,-179.6084"/>
</g>
<!-- 3 -->
<g id="node4" class="node">
<title>3</title>
<polygon fill="none" stroke="#000000" points="147.3041,-58.6014 .2315,-58.6014 .2315,.2014 147.3041,.2014 147.3041,-58.6014"/>
<text text-anchor="middle" x="73.7678" y="-41.8" font-family="Times,serif" font-size="14.00" fill="#000000">gini = 0.124</text>
<text text-anchor="middle" x="73.7678" y="-25" font-family="Times,serif" font-size="14.00" fill="#000000">samples = 2374</text>
<text text-anchor="middle" x="73.7678" y="-8.2" font-family="Times,serif" font-size="14.00" fill="#000000">value = [3539, 222, 28]</text>
</g>
<!-- 2&#45;&gt;3 -->
<g id="edge3" class="edge">
<title>2-&gt;3</title>
<path fill="none" stroke="#000000" d="M171.9317,-94.3048C157.0533,-84.4371 141.0787,-73.8423 126.4284,-64.1259"/>
<polygon fill="#000000" stroke="#000000" points="128.2422,-61.129 117.9739,-58.5186 124.3731,-66.9626 128.2422,-61.129"/>
</g>
<!-- 4 -->
<g id="node5" class="node">
<title>4</title>
<polygon fill="none" stroke="#000000" points="291.8042,-58.6014 165.7314,-58.6014 165.7314,.2014 291.8042,.2014 291.8042,-58.6014"/>
<text text-anchor="middle" x="228.7678" y="-41.8" font-family="Times,serif" font-size="14.00" fill="#000000">gini = 0.227</text>
<text text-anchor="middle" x="228.7678" y="-25" font-family="Times,serif" font-size="14.00" fill="#000000">samples = 148</text>
<text text-anchor="middle" x="228.7678" y="-8.2" font-family="Times,serif" font-size="14.00" fill="#000000">value = [0, 220, 33]</text>
</g>
<!-- 2&#45;&gt;4 -->
<g id="edge4" class="edge">
<title>2-&gt;4</title>
<path fill="none" stroke="#000000" d="M228.7678,-94.3048C228.7678,-85.9126 228.7678,-76.9946 228.7678,-68.5382"/>
<polygon fill="#000000" stroke="#000000" points="232.2679,-68.5186 228.7678,-58.5186 225.2679,-68.5187 232.2679,-68.5186"/>
</g>
<!-- 6 -->
<g id="node7" class="node">
<title>6</title>
<polygon fill="none" stroke="#000000" points="457.3041,-58.6014 310.2315,-58.6014 310.2315,.2014 457.3041,.2014 457.3041,-58.6014"/>
<text text-anchor="middle" x="383.7678" y="-41.8" font-family="Times,serif" font-size="14.00" fill="#000000">gini = 0.206</text>
<text text-anchor="middle" x="383.7678" y="-25" font-family="Times,serif" font-size="14.00" fill="#000000">samples = 2491</text>
<text text-anchor="middle" x="383.7678" y="-8.2" font-family="Times,serif" font-size="14.00" fill="#000000">value = [18, 3463, 436]</text>
</g>
<!-- 5&#45;&gt;6 -->
<g id="edge6" class="edge">
<title>5-&gt;6</title>
<path fill="none" stroke="#000000" d="M424.9333,-94.3048C419.3354,-85.4515 413.3675,-76.013 407.7626,-67.1487"/>
<polygon fill="#000000" stroke="#000000" points="410.6084,-65.1003 402.3058,-58.5186 404.6919,-68.8413 410.6084,-65.1003"/>
</g>
<!-- 7 -->
<g id="node8" class="node">
<title>7</title>
<polygon fill="none" stroke="#000000" points="601.8042,-58.6014 475.7314,-58.6014 475.7314,.2014 601.8042,.2014 601.8042,-58.6014"/>
<text text-anchor="middle" x="538.7678" y="-41.8" font-family="Times,serif" font-size="14.00" fill="#000000">gini = 0.145</text>
<text text-anchor="middle" x="538.7678" y="-25" font-family="Times,serif" font-size="14.00" fill="#000000">samples = 120</text>
<text text-anchor="middle" x="538.7678" y="-8.2" font-family="Times,serif" font-size="14.00" fill="#000000">value = [0, 15, 176]</text>
</g>
<!-- 5&#45;&gt;7 -->
<g id="edge7" class="edge">
<title>5-&gt;7</title>
<path fill="none" stroke="#000000" d="M481.7694,-94.3048C489.8433,-85.0826 498.4731,-75.2255 506.5116,-66.0437"/>
<polygon fill="#000000" stroke="#000000" points="509.146,-68.3481 513.0997,-58.5186 503.8792,-63.7371 509.146,-68.3481"/>
</g>
<!-- 9 -->
<g id="node10" class="node">
<title>9</title>
<polygon fill="none" stroke="#000000" points="812.3042,-169.7003 679.2314,-169.7003 679.2314,-94.2997 812.3042,-94.2997 812.3042,-169.7003"/>
<text text-anchor="middle" x="745.7678" y="-153" font-family="Times,serif" font-size="14.00" fill="#000000">i &lt;= 0.521</text>
<text text-anchor="middle" x="745.7678" y="-136.2" font-family="Times,serif" font-size="14.00" fill="#000000">gini = 0.017</text>
<text text-anchor="middle" x="745.7678" y="-119.4" font-family="Times,serif" font-size="14.00" fill="#000000">samples = 1551</text>
<text text-anchor="middle" x="745.7678" y="-102.6" font-family="Times,serif" font-size="14.00" fill="#000000">value = [0, 21, 2412]</text>
</g>
<!-- 8&#45;&gt;9 -->
<g id="edge9" class="edge">
<title>8-&gt;9</title>
<path fill="none" stroke="#000000" d="M745.7678,-205.5528C745.7678,-197.22 745.7678,-188.2845 745.7678,-179.6137"/>
<polygon fill="#000000" stroke="#000000" points="749.2679,-179.6084 745.7678,-169.6085 742.2679,-179.6085 749.2679,-179.6084"/>
</g>
<!-- 12 -->
<g id="node13" class="node">
<title>12</title>
<polygon fill="none" stroke="#000000" points="1039.8042,-169.7003 899.7314,-169.7003 899.7314,-94.2997 1039.8042,-94.2997 1039.8042,-169.7003"/>
<text text-anchor="middle" x="969.7678" y="-153" font-family="Times,serif" font-size="14.00" fill="#000000">x_coord &lt;= 0.539</text>
<text text-anchor="middle" x="969.7678" y="-136.2" font-family="Times,serif" font-size="14.00" fill="#000000">gini = 0.52</text>
<text text-anchor="middle" x="969.7678" y="-119.4" font-family="Times,serif" font-size="14.00" fill="#000000">samples = 741</text>
<text text-anchor="middle" x="969.7678" y="-102.6" font-family="Times,serif" font-size="14.00" fill="#000000">value = [433, 51, 673]</text>
</g>
<!-- 8&#45;&gt;12 -->
<g id="edge12" class="edge">
<title>8-&gt;12</title>
<path fill="none" stroke="#000000" d="M819.424,-206.6349C842.1634,-195.3464 867.301,-182.8674 890.4077,-171.3966"/>
<polygon fill="#000000" stroke="#000000" points="892.0911,-174.4686 899.4918,-166.887 888.9785,-168.1986 892.0911,-174.4686"/>
</g>
<!-- 10 -->
<g id="node11" class="node">
<title>10</title>
<polygon fill="none" stroke="#000000" points="732.8044,-58.6014 620.7312,-58.6014 620.7312,.2014 732.8044,.2014 732.8044,-58.6014"/>
<text text-anchor="middle" x="676.7678" y="-41.8" font-family="Times,serif" font-size="14.00" fill="#000000">gini = 0.404</text>
<text text-anchor="middle" x="676.7678" y="-25" font-family="Times,serif" font-size="14.00" fill="#000000">samples = 21</text>
<text text-anchor="middle" x="676.7678" y="-8.2" font-family="Times,serif" font-size="14.00" fill="#000000">value = [0, 9, 23]</text>
</g>
<!-- 9&#45;&gt;10 -->
<g id="edge10" class="edge">
<title>9-&gt;10</title>
<path fill="none" stroke="#000000" d="M720.4665,-94.3048C714.4623,-85.3593 708.057,-75.8163 702.0534,-66.8718"/>
<polygon fill="#000000" stroke="#000000" points="704.9258,-64.8711 696.4466,-58.5186 699.1137,-68.7723 704.9258,-64.8711"/>
</g>
<!-- 11 -->
<g id="node12" class="node">
<title>11</title>
<polygon fill="none" stroke="#000000" points="884.3042,-58.6014 751.2314,-58.6014 751.2314,.2014 884.3042,.2014 884.3042,-58.6014"/>
<text text-anchor="middle" x="817.7678" y="-41.8" font-family="Times,serif" font-size="14.00" fill="#000000">gini = 0.01</text>
<text text-anchor="middle" x="817.7678" y="-25" font-family="Times,serif" font-size="14.00" fill="#000000">samples = 1530</text>
<text text-anchor="middle" x="817.7678" y="-8.2" font-family="Times,serif" font-size="14.00" fill="#000000">value = [0, 12, 2389]</text>
</g>
<!-- 9&#45;&gt;11 -->
<g id="edge11" class="edge">
<title>9-&gt;11</title>
<path fill="none" stroke="#000000" d="M772.1691,-94.3048C778.4344,-85.3593 785.1182,-75.8163 791.3829,-66.8718"/>
<polygon fill="#000000" stroke="#000000" points="794.3633,-68.7174 797.2334,-58.5186 788.6298,-64.7016 794.3633,-68.7174"/>
</g>
<!-- 13 -->
<g id="node14" class="node">
<title>13</title>
<polygon fill="none" stroke="#000000" points="1036.3042,-58.6014 903.2314,-58.6014 903.2314,.2014 1036.3042,.2014 1036.3042,-58.6014"/>
<text text-anchor="middle" x="969.7678" y="-41.8" font-family="Times,serif" font-size="14.00" fill="#000000">gini = 0.222</text>
<text text-anchor="middle" x="969.7678" y="-25" font-family="Times,serif" font-size="14.00" fill="#000000">samples = 313</text>
<text text-anchor="middle" x="969.7678" y="-8.2" font-family="Times,serif" font-size="14.00" fill="#000000">value = [433, 47, 14]</text>
</g>
<!-- 12&#45;&gt;13 -->
<g id="edge13" class="edge">
<title>12-&gt;13</title>
<path fill="none" stroke="#000000" d="M969.7678,-94.3048C969.7678,-85.9126 969.7678,-76.9946 969.7678,-68.5382"/>
<polygon fill="#000000" stroke="#000000" points="973.2679,-68.5186 969.7678,-58.5186 966.2679,-68.5187 973.2679,-68.5186"/>
</g>
<!-- 14 -->
<g id="node15" class="node">
<title>14</title>
<polygon fill="none" stroke="#000000" points="1174.3043,-58.6014 1055.2313,-58.6014 1055.2313,.2014 1174.3043,.2014 1174.3043,-58.6014"/>
<text text-anchor="middle" x="1114.7678" y="-41.8" font-family="Times,serif" font-size="14.00" fill="#000000">gini = 0.012</text>
<text text-anchor="middle" x="1114.7678" y="-25" font-family="Times,serif" font-size="14.00" fill="#000000">samples = 428</text>
<text text-anchor="middle" x="1114.7678" y="-8.2" font-family="Times,serif" font-size="14.00" fill="#000000">value = [0, 4, 659]</text>
</g>
<!-- 12&#45;&gt;14 -->
<g id="edge14" class="edge">
<title>12-&gt;14</title>
<path fill="none" stroke="#000000" d="M1022.9371,-94.3048C1036.7255,-84.5293 1051.5203,-74.0403 1065.12,-64.3986"/>
<polygon fill="#000000" stroke="#000000" points="1067.2801,-67.1575 1073.4137,-58.5186 1063.2316,-61.447 1067.2801,-67.1575"/>
</g>
</g>
</svg>